<svg width="16" height="16" viewBox="0 0 16 16" fill="none" xmlns="http://www.w3.org/2000/svg">
    <path
        d="M11.6833 12.6833L12.6903 13.5479C12.8041 13.6457 12.975 13.6381 13.0749 13.5262C14.1479 12.324 14.8 10.7381 14.8 8.99998C14.8 5.24445 11.7555 2.19998 8.00001 2.19998C4.24448 2.19998 1.20001 5.24445 1.20001 8.99998C1.20001 10.6798 1.80913 12.2174 2.81854 13.4039C2.92007 13.5232 3.10013 13.5297 3.21495 13.423L4.31668 12.4"
        stroke="currentColor" stroke-linecap="round" />
    <path
        d="M11.1624 5.93144L7.09096 8.97694C6.75113 9.23113 6.76032 9.74359 7.10904 9.98544C7.37552 10.1703 7.7393 10.1191 7.94454 9.86806L11.1624 5.93144Z"
        fill="currentColor" stroke="currentColor" stroke-linejoin="round" />
    <path d="M1.76648 9H2.89981" stroke="currentColor" stroke-linecap="round" />
    <path
        d="M13.1 8.5C12.8238 8.5 12.6 8.72386 12.6 9C12.6 9.27614 12.8238 9.5 13.1 9.5V8.5ZM14.2333 9.5H14.7333V8.5H14.2333V9.5ZM13.1 9V9.5H14.2333V9V8.5H13.1V9Z"
        fill="currentColor" />
    <path d="M4.27701 5.26877L3.47562 4.46738" stroke="currentColor" stroke-linecap="round" />
    <path d="M8.00006 3.90012V2.76678" stroke="currentColor" stroke-linecap="round" />
</svg>