<svg width="12" height="13" viewBox="0 0 12 13" fill="none" xmlns="http://www.w3.org/2000/svg">
    <path fill-rule="evenodd" clip-rule="evenodd"
        d="M2.32472 2.29362C2.452 1.68555 2.98815 1.25 3.60939 1.25H9.00015C9.1671 1.25 9.3255 1.32423 9.43237 1.45258C9.53925 1.58094 9.58358 1.75014 9.55328 1.9144L8.24078 9.03942C8.18505 9.34212 7.8966 9.54327 7.59412 9.4922C7.56352 9.4973 7.5321 9.5 7.5 9.5H2.4375C2.12684 9.5 1.875 9.75185 1.875 10.0625C1.875 10.3731 2.12684 10.625 2.4375 10.625H7.94625C8.3964 10.625 8.78295 10.3051 8.86718 9.86292L10.1349 3.20726C10.1931 2.90208 10.4875 2.70182 10.7927 2.75994C11.0979 2.81808 11.2982 3.11259 11.2401 3.41776L9.9723 10.0735C9.78705 11.0462 8.93655 11.75 7.94625 11.75H2.4375C1.50552 11.75 0.75 10.9945 0.75 10.0625C0.75 10.0225 0.751395 9.98277 0.75414 9.9434C0.746831 9.88377 0.749042 9.8219 0.762045 9.7598L2.32472 2.29362ZM4.01965 2.75C3.85825 2.75 3.71495 2.85329 3.6639 3.00642L3.5389 3.38142C3.45796 3.62424 3.63869 3.875 3.89465 3.875H6.85408C7.0155 3.875 7.1588 3.77171 7.20984 3.61858L7.33484 3.24358C7.41578 3.00076 7.23505 2.75 6.97909 2.75H4.01965Z"
        fill="currentColor" />
</svg>