<svg width="16" height="20" viewBox="0 0 16 20" fill="none" xmlns="http://www.w3.org/2000/svg">
    <path d="M15 15H1V16H15V15Z" fill="currentColor" />
    <path
        d="M12 13.5H10C9.73488 13.4997 9.4807 13.3942 9.29323 13.2068C9.10576 13.0193 9.0003 12.7651 9 12.5V9C9.0003 8.73488 9.10576 8.4807 9.29323 8.29323C9.4807 8.10576 9.73488 8.0003 10 8H12C12.2651 8.0003 12.5193 8.10576 12.7068 8.29323C12.8942 8.4807 12.9997 8.73488 13 9V12.5C12.9997 12.7651 12.8942 13.0193 12.7068 13.2068C12.5193 13.3942 12.2651 13.4997 12 13.5ZM10 9V12.5H12.0006L12 9H10Z"
        fill="currentColor" />
    <path
        d="M6 13.5H4C3.73488 13.4997 3.4807 13.3942 3.29323 13.2068C3.10576 13.0193 3.0003 12.7651 3 12.5V5C3.0003 4.73488 3.10576 4.4807 3.29323 4.29323C3.4807 4.10576 3.73488 4.0003 4 4H6C6.26512 4.0003 6.5193 4.10576 6.70677 4.29323C6.89424 4.4807 6.9997 4.73488 7 5V12.5C6.9997 12.7651 6.89424 13.0193 6.70677 13.2068C6.5193 13.3942 6.26512 13.4997 6 13.5ZM4 5V12.5H6.0006L6 5H4Z"
        fill="currentColor" />
</svg>