<svg width="16" height="20" viewBox="0 0 16 20" fill="none" xmlns="http://www.w3.org/2000/svg">
    <g clip-path="url(#clip0_14_6623)">
        <path d="M10.5 11.5H8.50004V13.5H10.5V11.5Z" fill="currentColor" />
        <path d="M7.50004 11.5H5.50004V13.5H7.50004V11.5Z" fill="currentColor" />
        <path d="M10.5 14.5H8.50004V16.5H10.5V14.5Z" fill="currentColor" />
        <path d="M7.50004 14.5H5.50004V16.5H7.50004V14.5Z" fill="currentColor" />
        <path
            d="M12.25 14.5H12V13.5H12.25C12.9628 13.5005 13.6479 13.224 14.1607 12.7288C14.6735 12.2337 14.9738 11.5587 14.9983 10.8463C15.0227 10.1339 14.7694 9.43986 14.2918 8.91071C13.8142 8.38156 13.1497 8.05869 12.4385 8.01027L12.0203 7.98197L11.9753 7.56497C11.8684 6.58531 11.4035 5.67962 10.6698 5.02167C9.93618 4.36371 8.98541 3.99983 7.99994 3.99983C7.01446 3.99983 6.06369 4.36371 5.33003 5.02167C4.59637 5.67962 4.13149 6.58531 4.02459 7.56497L3.97959 7.98197L3.56134 8.01027C2.85015 8.0587 2.18562 8.38158 1.70801 8.91075C1.23041 9.43991 0.977117 10.134 1.00161 10.8464C1.02609 11.5588 1.32645 12.2338 1.83926 12.7289C2.35207 13.224 3.03721 13.5005 3.75004 13.5H4.00004V14.5H3.75004C2.81306 14.5005 1.9099 14.15 1.21851 13.5176C0.527117 12.8852 0.0976444 12.0168 0.0147169 11.0836C-0.0682105 10.1503 0.201422 9.21975 0.770483 8.47538C1.33954 7.73101 2.16676 7.22677 3.08914 7.06202C3.30729 5.91936 3.91707 4.88854 4.81347 4.1471C5.70986 3.40565 6.83674 3 8.00004 3C9.16333 3 10.2902 3.40565 11.1866 4.1471C12.083 4.88854 12.6928 5.91936 12.9109 7.06202C13.8333 7.22677 14.6605 7.73101 15.2296 8.47538C15.7986 9.21975 16.0683 10.1503 15.9854 11.0836C15.9024 12.0168 15.473 12.8852 14.7816 13.5176C14.0902 14.15 13.187 14.5005 12.25 14.5Z"
            fill="currentColor" />
    </g>
</svg>