<svg width="32" height="20" viewBox="0 0 32 20" fill="none" xmlns="http://www.w3.org/2000/svg">
    <path
        d="M2.98828 14.1797C2.67578 14.1797 2.40365 14.1029 2.17188 13.9492C1.94271 13.7956 1.77344 13.5911 1.66406 13.3359C1.55469 13.0781 1.52474 12.7943 1.57422 12.4844C1.6263 12.1719 1.7487 11.8867 1.94141 11.6289C2.13672 11.3711 2.375 11.1654 2.65625 11.0117C2.9401 10.8581 3.23828 10.7812 3.55078 10.7812H4.45703L4.71484 9.21094H3.80859C3.4987 9.21094 3.22786 9.13542 2.99609 8.98437C2.76432 8.83073 2.59245 8.6263 2.48047 8.37109C2.37109 8.11328 2.34245 7.82813 2.39453 7.51563C2.44661 7.20312 2.57031 6.91927 2.76562 6.66406C2.96094 6.40625 3.19922 6.20182 3.48047 6.05078C3.76432 5.89714 4.0612 5.82031 4.37109 5.82031C4.68359 5.82031 4.95573 5.89714 5.1875 6.05078C5.41927 6.20182 5.58984 6.40625 5.69922 6.66406C5.8112 6.91927 5.84245 7.20312 5.79297 7.51563L5.64453 8.41406H7.21484L7.36328 7.51563C7.41276 7.20312 7.53516 6.91927 7.73047 6.66406C7.92578 6.40625 8.16406 6.20182 8.44531 6.05078C8.72917 5.89714 9.02734 5.82031 9.33984 5.82031C9.65234 5.82031 9.92318 5.89714 10.1523 6.05078C10.3841 6.20182 10.5547 6.40625 10.6641 6.66406C10.776 6.91927 10.806 7.20312 10.7539 7.51563C10.7018 7.82813 10.5781 8.11328 10.3828 8.37109C10.1875 8.6263 9.94922 8.83073 9.66797 8.98437C9.38672 9.13542 9.08984 9.21094 8.77734 9.21094H7.87891L7.62109 10.7812H8.51953C8.82943 10.7812 9.09896 10.8594 9.32813 11.0156C9.5599 11.1693 9.73177 11.375 9.84375 11.6328C9.95573 11.8906 9.98568 12.1745 9.93359 12.4844C9.88411 12.7969 9.76042 13.082 9.5625 13.3398C9.36719 13.5951 9.1276 13.7995 8.84375 13.9531C8.5625 14.1042 8.26693 14.1797 7.95703 14.1797C7.64453 14.1797 7.3724 14.1042 7.14063 13.9531C6.90885 13.7995 6.73828 13.5937 6.62891 13.3359C6.51953 13.0781 6.49089 12.7943 6.54297 12.4844L6.69141 11.5781H5.12109L4.97266 12.4844C4.92057 12.7943 4.79557 13.0781 4.59766 13.3359C4.40234 13.5937 4.16276 13.7995 3.87891 13.9531C3.59766 14.1042 3.30078 14.1797 2.98828 14.1797ZM3.04297 13.3828C3.20964 13.3828 3.3737 13.3424 3.53516 13.2617C3.69922 13.181 3.83984 13.0729 3.95703 12.9375C4.07422 12.7995 4.14714 12.6484 4.17578 12.4844L4.32422 11.5781H3.49609C3.32943 11.5781 3.16536 11.6159 3.00391 11.6914C2.84245 11.7669 2.70443 11.8724 2.58984 12.0078C2.47526 12.1432 2.40234 12.3021 2.37109 12.4844C2.34766 12.6328 2.35807 12.776 2.40234 12.9141C2.44661 13.0521 2.52214 13.1654 2.62891 13.2539C2.73828 13.3398 2.8763 13.3828 3.04297 13.3828ZM3.86328 8.41406H4.84766L4.99609 7.51563C5.02214 7.34896 5.01172 7.19792 4.96484 7.0625C4.92057 6.92708 4.84245 6.81901 4.73047 6.73828C4.62109 6.65755 4.48307 6.61719 4.31641 6.61719C4.14974 6.61719 3.98568 6.65365 3.82422 6.72656C3.66276 6.79948 3.52474 6.90365 3.41016 7.03906C3.29557 7.17187 3.22266 7.33073 3.19141 7.51563C3.16797 7.66406 3.17839 7.80729 3.22266 7.94531C3.26693 8.08333 3.34245 8.19661 3.44922 8.28516C3.55859 8.37109 3.69661 8.41406 3.86328 8.41406ZM8.01172 8.41406H8.83203C8.99609 8.41406 9.15885 8.3776 9.32031 8.30469C9.48177 8.23177 9.62109 8.1276 9.73828 7.99219C9.85547 7.85677 9.92839 7.69792 9.95703 7.51563C9.98307 7.36458 9.97266 7.22135 9.92578 7.08594C9.87891 6.94792 9.80078 6.83594 9.69141 6.75C9.58464 6.66146 9.44922 6.61719 9.28516 6.61719C9.11849 6.61719 8.95313 6.65755 8.78906 6.73828C8.6276 6.81901 8.48828 6.92708 8.37109 7.0625C8.25651 7.19792 8.1862 7.34896 8.16016 7.51563L8.01172 8.41406ZM8.01172 13.3828C8.17578 13.3828 8.33854 13.3464 8.5 13.2734C8.66146 13.1979 8.80078 13.0924 8.91797 12.957C9.03516 12.8216 9.10807 12.6641 9.13672 12.4844C9.16276 12.3333 9.15234 12.1888 9.10547 12.0508C9.05859 11.9128 8.98047 11.7995 8.87109 11.7109C8.76432 11.6224 8.62891 11.5781 8.46484 11.5781H7.48828L7.33984 12.4844C7.3112 12.6484 7.31901 12.7995 7.36328 12.9375C7.40755 13.0729 7.48438 13.181 7.59375 13.2617C7.70573 13.3424 7.84505 13.3828 8.01172 13.3828ZM5.25391 10.7812H6.82422L7.08203 9.21094H5.51172L5.25391 10.7812ZM17.5146 12.5938L18.3662 7.4375H19.249L18.3975 12.5938H17.5146ZM15.7256 10.4531L15.874 9.57812H21.0303L20.8818 10.4531H15.7256ZM25.4063 14L26.7344 6H31.5625L31.4219 6.85937H27.5625L27.1094 9.5625H30.7188L30.5781 10.4219H26.9688L26.5156 13.1406H30.4375L30.2969 14H25.4063Z"
        fill="currentColor" />
</svg>