<svg width="16" height="16" viewBox="0 0 16 16" fill="none" xmlns="http://www.w3.org/2000/svg">
    <path fill-rule="evenodd" clip-rule="evenodd"
        d="M3.33325 1.33301C2.22868 1.33301 1.33325 2.22844 1.33325 3.33301V12.6663C1.33325 13.7709 2.22868 14.6663 3.33325 14.6663H12.6666C13.7712 14.6663 14.6666 13.7709 14.6666 12.6663V3.33301C14.6666 2.22844 13.7712 1.33301 12.6666 1.33301H3.33325ZM5.33325 2.66634H3.33325C2.96506 2.66634 2.66659 2.96482 2.66659 3.33301V12.6663C2.66659 13.0345 2.96506 13.333 3.33325 13.333H5.33325V2.66634ZM6.66658 13.333V2.66634H12.6666C13.0348 2.66634 13.3333 2.96482 13.3333 3.33301V12.6663C13.3333 13.0345 13.0348 13.333 12.6666 13.333H6.66658Z"
        fill="currentColor" />
</svg>