<svg width="16" height="20" viewBox="0 0 16 20" fill="none" xmlns="http://www.w3.org/2000/svg">
    <path
        d="M7.99997 9.33329C8.36816 9.33329 8.66664 9.63177 8.66664 9.99996V12.6666C8.66664 13.0348 8.36816 13.3333 7.99997 13.3333C7.63178 13.3333 7.3333 13.0348 7.3333 12.6666V9.99996C7.3333 9.63177 7.63178 9.33329 7.99997 9.33329Z"
        fill="currentColor" />
    <path
        d="M7.99997 6.66663C7.63178 6.66663 7.3333 6.9651 7.3333 7.33329C7.3333 7.70148 7.63178 7.99996 7.99997 7.99996H8.00664C8.37483 7.99996 8.6733 7.70148 8.6733 7.33329C8.6733 6.9651 8.37483 6.66663 8.00664 6.66663H7.99997Z"
        fill="currentColor" />
    <path fill-rule="evenodd" clip-rule="evenodd"
        d="M0.666626 9.99996C0.666626 5.94987 3.94987 2.66663 7.99996 2.66663C12.05 2.66663 15.3333 5.94987 15.3333 9.99996C15.3333 14.05 12.05 17.3333 7.99996 17.3333C3.94987 17.3333 0.666626 14.05 0.666626 9.99996ZM7.99996 3.99996C4.68625 3.99996 1.99996 6.68625 1.99996 9.99996C1.99996 13.3137 4.68625 16 7.99996 16C11.3137 16 14 13.3137 14 9.99996C14 6.68625 11.3137 3.99996 7.99996 3.99996Z"
        fill="currentColor" />
</svg>