<svg width="16" height="16" viewBox="0 0 16 16" fill="none" xmlns="http://www.w3.org/2000/svg">
    <path
        d="M5.29561 12.5683C2.71278 12.5683 0.666687 10.5005 0.666687 7.99995C0.666687 5.45094 2.76192 3.43164 5.29561 3.43164H10.7044C13.2873 3.43164 15.3334 5.49944 15.3334 7.99995C15.3334 10.549 13.2381 12.5683 10.7044 12.5683H5.29561ZM10.6068 10.9332C11.4066 10.9285 12.1723 10.6128 12.7379 10.0547C13.3035 9.49649 13.6233 8.7408 13.6281 7.95144C13.6233 7.16209 13.3035 6.4064 12.7379 5.84823C12.1723 5.29006 11.4066 4.97441 10.6068 4.96973H5.44176C4.64193 4.97441 3.87621 5.29006 3.31064 5.84823C2.74507 6.4064 2.42523 7.16209 2.42048 7.95144C2.42523 8.7408 2.74507 9.49649 3.31064 10.0547C3.87621 10.6128 4.64193 10.9285 5.44176 10.9332H10.6068Z"
        fill="#B21C1C" />
</svg>