<svg width="16" height="16" viewBox="0 0 16 16" fill="none" xmlns="http://www.w3.org/2000/svg">
    <path
        d="M0.799988 3.867L7.9051 0.844463C7.97182 0.81608 8.0473 0.816501 8.1137 0.845625L15.0019 3.867"
        stroke="currentColor" stroke-linecap="round" />
    <path
        d="M0.799927 14.3871V6.30846C0.799927 6.21984 0.845694 6.13606 0.920668 6.08882C3.91467 4.20225 6.58381 5.40492 7.73255 6.38772C7.84223 6.48156 8.00671 6.47989 8.11366 6.38296C10.4252 4.28798 13.4903 5.25995 14.8795 6.0909C14.9566 6.13701 15.0019 6.22084 15.0019 6.31066V14.3007C15.0019 14.5312 14.7172 14.6589 14.5249 14.5319C12.5336 13.217 9.54721 14.1066 8.07959 14.8303C7.9848 14.877 7.87062 14.8642 7.78708 14.7995C5.39176 12.9434 2.65835 13.7739 1.23457 14.6216C1.04898 14.7321 0.799927 14.6031 0.799927 14.3871Z"
        stroke="currentColor" stroke-linecap="round" />
    <path
        d="M4.95314 7.50153L3.25071 9.43489C3.16454 9.53275 3.16308 9.67898 3.24729 9.77854L4.95314 11.7953"
        stroke="currentColor" stroke-width="0.8" stroke-linecap="round" />
    <path
        d="M10.5088 7.50153L12.2113 9.43489C12.2974 9.53275 12.2989 9.67898 12.2147 9.77854L10.5088 11.7953"
        stroke="currentColor" stroke-width="0.8" stroke-linecap="round" />
    <path d="M8.39995 8.30154L7.59995 11.5015" stroke="currentColor" stroke-width="0.8"
        stroke-linecap="round" />
</svg>