<svg width="16" height="16" viewBox="0 0 16 16" fill="none" xmlns="http://www.w3.org/2000/svg">
    <path
        d="M8.4714 1.80082C8.21106 1.53303 7.78894 1.53303 7.5286 1.80082L4.19526 5.22939C3.93491 5.49718 3.93491 5.93135 4.19526 6.19913C4.45561 6.46692 4.87772 6.46692 5.13807 6.19913L8 3.25544L10.8619 6.19913C11.1223 6.46692 11.5444 6.46692 11.8047 6.19913C12.0651 5.93135 12.0651 5.49718 11.8047 5.22939L8.4714 1.80082Z"
        fill="currentColor" />
    <path
        d="M7.5286 14.1992C7.78894 14.467 8.21106 14.467 8.4714 14.1992L11.8047 10.7706C12.0651 10.5028 12.0651 10.0687 11.8047 9.80087C11.5444 9.53308 11.1223 9.53308 10.8619 9.80087L8 12.7446L5.13807 9.80087C4.87772 9.53308 4.45561 9.53308 4.19526 9.80087C3.93491 10.0687 3.93491 10.5028 4.19526 10.7706L7.5286 14.1992Z"
        fill="currentColor" />
</svg>