<svg width="39" height="12" viewBox="0 0 39 12" fill="none" xmlns="http://www.w3.org/2000/svg">
    <path
        d="M7.89426 2.43782H4.80637V11H3.20397V2.43782H0.109211V1.09676H7.89426V2.43782ZM11.9327 6.70172C11.9327 6.45414 11.896 6.22489 11.8227 6.01399C11.7539 5.7985 11.6507 5.61282 11.5132 5.45693C11.3757 5.29646 11.2037 5.17267 10.9974 5.08556C10.7957 4.99387 10.5618 4.94802 10.2959 4.94802C9.7595 4.94802 9.3377 5.10161 9.03051 5.40879C8.72333 5.71598 8.52847 6.14695 8.44595 6.70172H11.9327ZM8.40468 7.60951C8.42302 8.00839 8.48492 8.35455 8.59037 8.64798C8.69582 8.93682 8.83566 9.17753 9.00988 9.37009C9.18869 9.56265 9.39959 9.70708 9.64259 9.80336C9.89017 9.89505 10.1653 9.9409 10.4679 9.9409C10.7567 9.9409 11.0066 9.90881 11.2175 9.84462C11.4284 9.77585 11.6118 9.70249 11.7677 9.62455C11.9235 9.54202 12.0565 9.46867 12.1665 9.40448C12.2766 9.3357 12.3774 9.30132 12.4691 9.30132C12.5883 9.30132 12.68 9.34717 12.7442 9.43886L13.1637 9.98217C12.9895 10.1885 12.7924 10.3627 12.5723 10.5048C12.3522 10.647 12.1184 10.7639 11.8708 10.8556C11.6232 10.9427 11.3688 11.0046 11.1074 11.0413C10.8461 11.0825 10.5916 11.1032 10.3441 11.1032C9.85807 11.1032 9.40647 11.0229 8.98925 10.8625C8.57661 10.6974 8.2167 10.4567 7.90952 10.1403C7.60692 9.82399 7.36851 9.43199 7.19429 8.96433C7.02465 8.49668 6.93983 7.95796 6.93983 7.34818C6.93983 6.86219 7.01548 6.40829 7.16678 5.98648C7.32266 5.56468 7.54273 5.19789 7.82699 4.88612C8.11584 4.57435 8.46428 4.32906 8.87233 4.15026C9.28497 3.96686 9.75033 3.87517 10.2684 3.87517C10.6994 3.87517 11.0983 3.94623 11.4651 4.08836C11.8318 4.22591 12.1482 4.42993 12.4141 4.70044C12.68 4.97094 12.8864 5.30334 13.0331 5.69764C13.1844 6.08735 13.26 6.53208 13.26 7.03183C13.26 7.26107 13.2348 7.41466 13.1844 7.4926C13.1339 7.57054 13.0422 7.60951 12.9093 7.60951H8.40468ZM18.8272 5.25749C18.7905 5.32168 18.7492 5.36753 18.7034 5.39504C18.6575 5.42255 18.6002 5.4363 18.5314 5.4363C18.4535 5.4363 18.3687 5.41338 18.277 5.36753C18.1853 5.3171 18.0775 5.26208 17.9537 5.20248C17.83 5.14287 17.6832 5.09015 17.5136 5.0443C17.3485 4.99387 17.1537 4.96865 16.929 4.96865C16.7456 4.96865 16.5783 4.99157 16.427 5.03742C16.2803 5.07869 16.1542 5.14058 16.0487 5.22311C15.9479 5.30105 15.8699 5.39504 15.8149 5.50508C15.7599 5.61053 15.7324 5.72515 15.7324 5.84894C15.7324 6.01399 15.7828 6.15154 15.8837 6.26157C15.9846 6.37161 16.1175 6.46789 16.2826 6.55042C16.4476 6.62836 16.6356 6.69942 16.8465 6.76361C17.0574 6.8278 17.2729 6.89657 17.493 6.96993C17.713 7.04329 17.9285 7.12811 18.1394 7.22439C18.3503 7.32067 18.5383 7.43988 18.7034 7.58201C18.8684 7.71955 19.0014 7.88919 19.1022 8.09092C19.2031 8.28807 19.2535 8.52877 19.2535 8.81303C19.2535 9.14314 19.1939 9.44803 19.0747 9.72771C18.9555 10.0074 18.7813 10.2504 18.5521 10.4567C18.3228 10.663 18.0363 10.8235 17.6924 10.9381C17.3531 11.0527 16.9634 11.11 16.5233 11.11C16.2803 11.11 16.0442 11.0871 15.8149 11.0413C15.5903 11 15.3748 10.9427 15.1685 10.8693C14.9667 10.7914 14.7765 10.6997 14.5976 10.5942C14.4234 10.4888 14.2675 10.3742 14.13 10.2504L14.4739 9.68644C14.5151 9.61767 14.5656 9.56495 14.6252 9.52827C14.6893 9.487 14.7673 9.46637 14.859 9.46637C14.9553 9.46637 15.0493 9.49847 15.141 9.56265C15.2372 9.62226 15.3473 9.68874 15.4711 9.76209C15.5994 9.83545 15.753 9.90422 15.9318 9.96841C16.1106 10.028 16.333 10.0578 16.5989 10.0578C16.819 10.0578 17.0093 10.0326 17.1697 9.98217C17.3302 9.92715 17.4632 9.85379 17.5686 9.76209C17.6741 9.6704 17.752 9.56724 17.8024 9.45262C17.8529 9.33341 17.8781 9.20733 17.8781 9.07437C17.8781 8.89556 17.8277 8.74885 17.7268 8.63423C17.6259 8.5196 17.4907 8.42103 17.321 8.3385C17.156 8.25598 16.9657 8.18262 16.7502 8.11843C16.5393 8.05424 16.3238 7.98547 16.1038 7.91211C15.8837 7.83876 15.6659 7.75394 15.4504 7.65766C15.2395 7.56137 15.0493 7.43988 14.8796 7.29316C14.7146 7.14186 14.5816 6.96076 14.4807 6.74986C14.3799 6.53437 14.3294 6.27303 14.3294 5.96585C14.3294 5.68618 14.3845 5.42026 14.4945 5.16809C14.6091 4.91592 14.7742 4.69356 14.9897 4.501C15.2097 4.30843 15.4779 4.15713 15.7943 4.0471C16.1152 3.93248 16.4843 3.87517 16.9015 3.87517C17.3738 3.87517 17.8024 3.95082 18.1876 4.10212C18.5727 4.25342 18.8959 4.45973 19.1573 4.72107L18.8272 5.25749ZM24.8313 5.25749C24.7946 5.32168 24.7534 5.36753 24.7075 5.39504C24.6617 5.42255 24.6044 5.4363 24.5356 5.4363C24.4577 5.4363 24.3728 5.41338 24.2811 5.36753C24.1894 5.3171 24.0817 5.26208 23.9579 5.20248C23.8341 5.14287 23.6874 5.09015 23.5178 5.0443C23.3527 4.99387 23.1579 4.96865 22.9332 4.96865C22.7498 4.96865 22.5825 4.99157 22.4312 5.03742C22.2844 5.07869 22.1584 5.14058 22.0529 5.22311C21.952 5.30105 21.8741 5.39504 21.8191 5.50508C21.7641 5.61053 21.7366 5.72515 21.7366 5.84894C21.7366 6.01399 21.787 6.15154 21.8879 6.26157C21.9887 6.37161 22.1217 6.46789 22.2867 6.55042C22.4518 6.62836 22.6398 6.69942 22.8507 6.76361C23.0616 6.8278 23.2771 6.89657 23.4971 6.96993C23.7172 7.04329 23.9327 7.12811 24.1436 7.22439C24.3545 7.32067 24.5425 7.43988 24.7075 7.58201C24.8726 7.71955 25.0055 7.88919 25.1064 8.09092C25.2073 8.28807 25.2577 8.52877 25.2577 8.81303C25.2577 9.14314 25.1981 9.44803 25.0789 9.72771C24.9597 10.0074 24.7855 10.2504 24.5562 10.4567C24.327 10.663 24.0404 10.8235 23.6966 10.9381C23.3573 11.0527 22.9676 11.11 22.5274 11.11C22.2844 11.11 22.0483 11.0871 21.8191 11.0413C21.5944 11 21.3789 10.9427 21.1726 10.8693C20.9709 10.7914 20.7806 10.6997 20.6018 10.5942C20.4276 10.4888 20.2717 10.3742 20.1342 10.2504L20.478 9.68644C20.5193 9.61767 20.5697 9.56495 20.6293 9.52827C20.6935 9.487 20.7715 9.46637 20.8631 9.46637C20.9594 9.46637 21.0534 9.49847 21.1451 9.56265C21.2414 9.62226 21.3514 9.68874 21.4752 9.76209C21.6036 9.83545 21.7572 9.90422 21.936 9.96841C22.1148 10.028 22.3372 10.0578 22.6031 10.0578C22.8232 10.0578 23.0134 10.0326 23.1739 9.98217C23.3344 9.92715 23.4673 9.85379 23.5728 9.76209C23.6782 9.6704 23.7562 9.56724 23.8066 9.45262C23.857 9.33341 23.8823 9.20733 23.8823 9.07437C23.8823 8.89556 23.8318 8.74885 23.731 8.63423C23.6301 8.5196 23.4948 8.42103 23.3252 8.3385C23.1601 8.25598 22.9699 8.18262 22.7544 8.11843C22.5435 8.05424 22.328 7.98547 22.1079 7.91211C21.8879 7.83876 21.6701 7.75394 21.4546 7.65766C21.2437 7.56137 21.0534 7.43988 20.8838 7.29316C20.7187 7.14186 20.5858 6.96076 20.4849 6.74986C20.384 6.53437 20.3336 6.27303 20.3336 5.96585C20.3336 5.68618 20.3886 5.42026 20.4987 5.16809C20.6133 4.91592 20.7783 4.69356 20.9938 4.501C21.2139 4.30843 21.4821 4.15713 21.7985 4.0471C22.1194 3.93248 22.4885 3.87517 22.9057 3.87517C23.3779 3.87517 23.8066 3.95082 24.1917 4.10212C24.5769 4.25342 24.9001 4.45973 25.1614 4.72107L24.8313 5.25749ZM31.2481 6.70172C31.2481 6.45414 31.2114 6.22489 31.1381 6.01399C31.0693 5.7985 30.9662 5.61282 30.8286 5.45693C30.6911 5.29646 30.5191 5.17267 30.3128 5.08556C30.1111 4.99387 29.8773 4.94802 29.6113 4.94802C29.0749 4.94802 28.6531 5.10161 28.3459 5.40879C28.0387 5.71598 27.8439 6.14695 27.7614 6.70172H31.2481ZM27.7201 7.60951C27.7384 8.00839 27.8003 8.35455 27.9058 8.64798C28.0112 8.93682 28.1511 9.17753 28.3253 9.37009C28.5041 9.56265 28.715 9.70708 28.958 9.80336C29.2056 9.89505 29.4807 9.9409 29.7833 9.9409C30.0721 9.9409 30.322 9.90881 30.5329 9.84462C30.7438 9.77585 30.9272 9.70249 31.0831 9.62455C31.239 9.54202 31.3719 9.46867 31.4819 9.40448C31.592 9.3357 31.6929 9.30132 31.7845 9.30132C31.9038 9.30132 31.9954 9.34717 32.0596 9.43886L32.4791 9.98217C32.3049 10.1885 32.1078 10.3627 31.8877 10.5048C31.6676 10.647 31.4338 10.7639 31.1862 10.8556C30.9386 10.9427 30.6842 11.0046 30.4229 11.0413C30.1615 11.0825 29.9071 11.1032 29.6595 11.1032C29.1735 11.1032 28.7219 11.0229 28.3047 10.8625C27.892 10.6974 27.5321 10.4567 27.2249 10.1403C26.9223 9.82399 26.6839 9.43199 26.5097 8.96433C26.3401 8.49668 26.2552 7.95796 26.2552 7.34818C26.2552 6.86219 26.3309 6.40829 26.4822 5.98648C26.6381 5.56468 26.8581 5.19789 27.1424 4.88612C27.4312 4.57435 27.7797 4.32906 28.1877 4.15026C28.6004 3.96686 29.0657 3.87517 29.5838 3.87517C30.0148 3.87517 30.4137 3.94623 30.7805 4.08836C31.1473 4.22591 31.4636 4.42993 31.7295 4.70044C31.9954 4.97094 32.2018 5.30334 32.3485 5.69764C32.4998 6.08735 32.5754 6.53208 32.5754 7.03183C32.5754 7.26107 32.5502 7.41466 32.4998 7.4926C32.4493 7.57054 32.3577 7.60951 32.2247 7.60951H27.7201ZM35.4604 0.821666V11H33.9818V0.821666H35.4604ZM38.7916 0.821666V11H37.313V0.821666H38.7916Z"
        fill="#11567F" />
</svg>