<svg width="22" height="22" viewBox="0 0 22 22" fill="none" xmlns="http://www.w3.org/2000/svg">
    <path fill-rule="evenodd" clip-rule="evenodd"
        d="M16.9792 14.6848L11.1995 11.3471L16.9712 8.02308L19.7413 9.65996L19.8651 13.0229L16.9792 14.6848Z"
        fill="#29B5E8" />
    <path fill-rule="evenodd" clip-rule="evenodd"
        d="M10.8127 3.9769L10.8047 10.6387L5.03299 7.31468L5.06908 4.10329L7.92684 2.31491L10.8127 3.9769Z"
        fill="#29B5E8" />
    <path fill-rule="evenodd" clip-rule="evenodd"
        d="M4.68726 15.0158L10.475 11.6918V18.3398L7.6688 19.9143L4.68726 18.3398V15.0158Z"
        fill="#29B5E8" />
    <path fill-rule="evenodd" clip-rule="evenodd"
        d="M11.1853 18.023L11.1933 11.3612L16.965 14.6852L16.9289 17.8966L14.0712 19.685L11.1853 18.023Z"
        fill="#11567F" />
    <path fill-rule="evenodd" clip-rule="evenodd"
        d="M5.02822 7.33804L10.8079 10.6758L5.03621 13.9998L2.26614 12.3629L2.14236 9.00004L5.02822 7.33804Z"
        fill="#11567F" />
    <path fill-rule="evenodd" clip-rule="evenodd"
        d="M16.6166 7.3633L10.8289 10.6873L10.8289 4.03931L13.6351 2.46479L16.6166 4.03931L16.6166 7.3633Z"
        fill="#11567F" />
</svg>